TITLE "星芒"
PERFORMER "Melting Architecture (融解建築)"
REM DATE "2017-01-31"
REM DISCID 1E05A503
FILE "Melting Architecture (融解建築) - 星芒.flac" WAVE
  TRACK 01 AUDIO
    TITLE "Hedgehog Cadillac"
    PERFORMER "Melting Architecture (融解建築)"
    INDEX 01 00:00:00
  TRACK 02 AUDIO
    TITLE "The Starfish is Dancing"
    PERFORMER "Melting Architecture (融解建築)"
    INDEX 01 06:56:65
  TRACK 03 AUDIO
    TITLE "Death and the Sun"
    PERFORMER "Melting Architecture (融解建築)"
    INDEX 01 14:10:34
